:FULLY-SPECIFIED
:FORCE-ALL-JOINTS-BE-3DOF
:DEGREES
374
root 6.19746 16.5054 -15.8996 9.40248 -17.1135 -6.15437
lfemur -46.0196 22.9442 -13.4265
ltibia 68.5634 -0 0
lfoot -10.8909 -1.63789 0.0313344
ltoes 13.8469 -0 0
rfemur -24.6234 -3.45223 31.272
rtibia 41.7823 -0 0
rfoot -21.4762 0.609313 -0.000697276
rtoes 17.9347 -0 0
lowerback 5.3164 1.5605 3.47892
upperback 2.66264 2.23177 1.02301
thorax -0.145659 1.13455 -1.01393
lowerneck -7.90101 -1.24389 2.95446
upperneck -0.720173 -1.9712 2.11473
head 1.0862 -0.952009 0.0968198
lclavicle -3.48188e-14 -4.96657e-15 1.59218e-31
lhumerus -40.1774 -23.1671 94.8364
lradius 56.5081 -0 0
lwrist 19.4424 0 0
lhand -21.7821 2.75614 -0.00849991
lfingers 7.12502 -0 0
lthumb 4.61934 32.6928 -0.00719556
rclavicle -3.48188e-14 -4.96657e-15 1.59218e-31
rhumerus -37.3615 12.9061 -93.5213
rradius 60.8397 -0 0
rwrist 9.43202 0 0
rhand -8.90269 -19.1549 -0.0304031
rfingers 7.12502 -0 0
rthumb 17.0404 -48.4326 -0.0303587
375
root 6.15055 16.5143 -15.7647 9.46322 -17.9224 -6.29841
lfemur -46.4397 22.6509 -13.8328
ltibia 65.4191 -0 0
lfoot -10.3367 -0.897221 0.0356607
ltoes 13.7168 -0 0
rfemur -23.7187 -2.73703 31.2901
rtibia 41.2966 -0 0
rfoot -21.7225 0.617018 -0.000838605
rtoes 18.0584 -0 0
lowerback 5.28663 1.74894 3.58153
upperback 2.63492 2.48566 0.955367
thorax -0.138511 1.26239 -1.15229
lowerneck -7.80903 -1.16042 3.10721
upperneck -0.622843 -1.87098 2.04479
head 1.09979 -0.901965 0.0531642
lclavicle -2.85977e-14 -5.04669e-15 3.69118e-31
lhumerus -40.0094 -23.1094 94.4742
lradius 56.1286 -0 0
lwrist 18.9453 0 0
lhand -22.0903 2.49183 -0.0103839
lfingers 7.12502 -0 0
lthumb 4.32185 32.4358 -0.00889139
rclavicle -2.85977e-14 -5.04669e-15 3.69118e-31
rhumerus -37.4682 13.2183 -93.6372
rradius 60.1538 -0 0
rwrist 9.66484 0 0
rhand -9.25435 -18.9003 -0.0313734
rfingers 7.12502 -0 0
rthumb 16.7018 -48.2057 -0.0309806
376
root 6.10281 16.5235 -15.627 9.50877 -18.7238 -6.43429
lfemur -46.6498 22.2729 -14.1206
ltibia 62.0784 -0 0
lfoot -9.70073 -0.107777 0.0322652
ltoes 13.5736 -0 0
rfemur -22.7817 -2.04535 31.3016
rtibia 40.7935 -0 0
rfoot -21.952 0.626405 -0.000802264
rtoes 18.1306 -0 0
lowerback 5.23597 1.9422 3.66615
upperback 2.60057 2.7443 0.887524
thorax -0.12571 1.39254 -1.28034
lowerneck -7.70644 -1.0852 3.25537
upperneck -0.512383 -1.78106 1.98653
head 1.1163 -0.856611 0.0135439
lclavicle -2.0824e-14 -5.12175e-15 5.22856e-31
lhumerus -39.8767 -23.0173 94.1357
lradius 55.7525 -0 0
lwrist 18.4281 0 0
lhand -22.2974 2.25951 -0.0106598
lfingers 7.12502 -0 0
lthumb 4.12179 32.207 -0.00925669
rclavicle -2.0824e-14 -5.12175e-15 5.22856e-31
rhumerus -37.6049 13.5055 -93.7519
rradius 59.5093 -0 0
rwrist 9.84699 0 0
rhand -9.73085 -18.7235 -0.0254784
rfingers 7.12502 -0 0
rthumb 16.2429 -48.0652 -0.0248718
377
root 6.0544 16.5321 -15.4869 9.53803 -19.4971 -6.56545
lfemur -46.6711 21.7592 -14.2556
ltibia 58.7025 -0 0
lfoot -9.06173 0.76081 0.0226826
ltoes 13.4481 -0 0
rfemur -21.828 -1.41226 31.3173
rtibia 40.3 -0 0
rfoot -22.1725 0.632881 -0.000608805
rtoes 18.1577 -0 0
lowerback 5.16785 2.12944 3.74325
upperback 2.56121 2.99396 0.821626
thorax -0.108134 1.5182 -1.40085
lowerneck -7.59655 -1.01604 3.40042
upperneck -0.392679 -1.69866 1.93657
head 1.13484 -0.81464 -0.023264
lclavicle -1.19237e-14 -5.0974e-15 5.3902e-31
lhumerus -39.7861 -22.9034 93.8267
lradius 55.3954 -0 0
lwrist 17.9493 0 0
lhand -22.392 2.08508 -0.00904606
lfingers 7.12502 -0 0
lthumb 4.03047 32.0326 -0.00797076
rclavicle -1.19237e-14 -5.0974e-15 5.3902e-31
rhumerus -37.7712 13.774 -93.8648
rradius 58.917 -0 0
rwrist 9.99606 0 0
rhand -10.2576 -18.6085 -0.0159547
rfingers 7.12502 -0 0
rthumb 15.7356 -47.9895 -0.0154035
378
root 6.00548 16.539 -15.3447 9.54988 -20.2215 -6.69526
lfemur -46.5263 21.0574 -14.2054
ltibia 55.4524 -0 0
lfoot -8.49856 1.73898 0.0100803
ltoes 13.3716 -0 0
rfemur -20.8729 -0.873155 31.3463
rtibia 39.8427 -0 0
rfoot -22.3918 0.631854 -0.000311919
rtoes 18.1458 -0 0
lowerback 5.08575 2.29981 3.82334
upperback 2.51855 3.22087 0.759857
thorax -0.0866444 1.63254 -1.51662
lowerneck -7.48263 -0.950728 3.54384
upperneck -0.26764 -1.62098 1.89153
head 1.15453 -0.774747 -0.0584839
lclavicle -2.32242e-15 -4.87935e-15 3.69188e-31
lhumerus -39.7446 -22.7807 93.5526
lradius 55.073 -0 0
lwrist 17.5673 0 0
lhand -22.3621 1.99444 -0.00538842
lfingers 7.12502 -0 0
lthumb 4.05922 31.9387 -0.00481486
rclavicle -2.32242e-15 -4.87935e-15 3.69188e-31
rhumerus -37.9668 14.0299 -93.9754
rradius 58.3876 -0 0
rwrist 10.1297 0 0
rhand -10.76 -18.5391 -0.00631896
rfingers 7.12502 -0 0
rthumb 15.2516 -47.957 -0.0060449
379
root 5.95621 16.5429 -15.2007 9.54319 -20.8765 -6.8271
lfemur -46.2414 20.1137 -13.9394
ltibia 52.4892 0 0
lfoot -8.08989 2.85728 0
ltoes 13.3749 0 0
rfemur -19.9317 -0.463717 31.3962
rtibia 39.4485 0 0
rfoot -22.618 0.618733 0
rtoes 18.1011 0 0
lowerback 4.99316 2.4425 3.91702
upperback 2.47433 3.41131 0.704442
thorax -0.0620885 1.72875 -1.63046
lowerneck -7.36796 -0.887037 3.6871
upperneck -0.141185 -1.54524 1.84803
head 1.17445 -0.735625 -0.0933401
lclavicle 7.55382e-15 -4.37326e-15 0
lhumerus -39.7586 -22.6619 93.3187
lradius 54.8011 0 0
lwrist 17.3402 0 0
lhand -22.1962 2.01352 0
lfingers 7.12502 0 0
lthumb 4.21936 31.9515 0
rclavicle 7.55382e-15 -4.37326e-15 0
rhumerus -38.1913 14.2795 -94.0831
rradius 57.9319 0 0
rwrist 10.2654 0 0
rhand -11.1636 -18.4989 0
rfingers 7.12502 0 0
rthumb 14.8629 -767.946 0
380
root 5.90638 16.5441 -15.0535 9.51689 -21.45 -6.96671
lfemur -45.7387 18.8301 -13.3878
ltibia 49.6355 -0 0
lfoot -7.83124 4.2437 -0.00438589
ltoes 13.5567 -0 0
rfemur -18.9412 -0.15786 31.4698
rtibia 39.0223 -0 0
rfoot -22.8861 0.587325 0.000347216
rtoes 18.0705 -0 0
lowerback 4.87749 2.55497 4.03748
upperback 2.42628 3.56191 0.656704
thorax -0.028617 1.80532 -1.74766
lowerneck -7.24573 -0.827632 3.83014
upperneck -0.0111361 -1.47464 1.80478
head 1.19419 -0.698876 -0.128306
lclavicle 1.98599e-14 -3.44019e-15 -6.25382e-31
lhumerus -39.842 -22.5308 93.1213
lradius 54.588 -0 0
lwrist 17.2877 0 0
lhand -21.8413 2.18043 0.00715979
lfingers 7.12502 -0 0
lthumb 4.56197 32.1081 0.00660091
rclavicle 1.98599e-14 -3.44019e-15 -6.25382e-31
rhumerus -38.451 14.5428 -94.1988
rradius 57.5457 -0 0
rwrist 10.3997 0 0
rhand -11.5034 -18.5382 0.00381768
rfingers 7.12502 -0 0
rthumb 14.5355 -48.009 0.0036934
381
root 5.85579 16.5435 -14.9025 9.47116 -21.9565 -7.11243
lfemur -44.9892 17.2154 -12.5738
ltibia 46.6891 -0 0
lfoot -7.65111 5.91378 -0.00589725
ltoes 13.9222 -0 0
rfemur -17.8666 0.0842271 31.5588
rtibia 38.5085 -0 0
rfoot -23.2008 0.539646 0.000653209
rtoes 18.0641 -0 0
lowerback 4.73139 2.64613 4.17968
upperback 2.37218 3.68377 0.615124
thorax 0.0165406 1.86785 -1.86747
lowerneck -7.1108 -0.775418 3.97161
upperneck 0.126744 -1.41274 1.76435
head 1.2144 -0.666192 -0.162454
lclavicle 3.56927e-14 -2.11766e-15 -1.29322e-30
lhumerus -39.9936 -22.3709 92.9541
lradius 54.4226 -0 0
lwrist 17.3645 0 0
lhand -21.2902 2.4849 0.0146817
lfingers 7.12502 -0 0
lthumb 5.09401 32.3978 0.0136638
rclavicle 3.56927e-14 -2.11766e-15 -1.29322e-30
rhumerus -38.7483 14.8208 -94.3269
rradius 57.2178 -0 0
rwrist 10.5156 0 0
rhand -11.8574 -18.688 0.00714059
rfingers 7.12502 -0 0
rthumb 14.1944 -48.1827 0.00696712
382
root 5.80458 16.5414 -14.7489 9.40674 -22.415 -7.25657
lfemur -44.0903 15.3754 -11.604
ltibia 43.7736 -0 0
lfoot -7.5275 7.72947 -0.00495398
ltoes 14.3626 -0 0
rfemur -16.7661 0.247616 31.652
rtibia 37.9934 -0 0
rfoot -23.5244 0.483421 0.000732735
rtoes 18.033 -0 0
lowerback 4.56624 2.72235 4.32691
upperback 2.31388 3.78482 0.577698
thorax 0.067929 1.92015 -1.98367
lowerneck -6.96893 -0.728505 4.11108
upperneck 0.271611 -1.35728 1.72912
head 1.23583 -0.636408 -0.194901
lclavicle 5.30393e-14 -5.7607e-16 -1.67035e-30
lhumerus -40.1967 -22.1949 92.8183
lradius 54.2912 -0 0
lwrist 17.5315 0 0
lhand -20.5997 2.88023 0.0195401
lfingers 7.12502 -0 0
lthumb 5.76067 32.7746 0.0182986
rclavicle 5.30393e-14 -5.7607e-16 -1.67035e-30
rhumerus -39.0773 15.091 -94.4574
rradius 56.9491 -0 0
rwrist 10.611 0 0
rhand -12.2154 -18.9037 0.00889737
rfingers 7.12502 -0 0
rthumb 13.8494 -48.4218 0.00873778
383
root 5.75291 16.5381 -14.5939 9.32431 -22.8445 -7.39148
lfemur -43.1288 13.4197 -10.5753
ltibia 41.0127 -0 0
lfoot -7.43846 9.55269 -0.00209447
ltoes 14.7689 -0 0
rfemur -15.6977 0.317961 31.7374
rtibia 37.563 -0 0
rfoot -23.8191 0.426372 0.000546059
rtoes 17.9282 -0 0
lowerback 4.3934 2.7898 4.46247
upperback 2.25318 3.87303 0.542416
thorax 0.120088 1.96601 -2.09004
lowerneck -6.82585 -0.684972 4.24811
upperneck 0.422619 -1.30602 1.7015
head 1.2592 -0.60836 -0.224766
lclavicle 6.98867e-14 1.01421e-15 -1.59958e-30
lhumerus -40.4349 -22.0151 92.7153
lradius 54.1802 -0 0
lwrist 17.7497 0 0
lhand -19.8266 3.31965 0.0197055
lfingers 7.12502 -0 0
lthumb 6.5071 33.1928 0.0185535
rclavicle 6.98867e-14 1.01421e-15 -1.59958e-30
rhumerus -39.4317 15.3314 -94.5795
rradius 56.7402 -0 0
rwrist 10.6835 0 0
rhand -12.5672 -19.1404 0.00861673
rfingers 7.12502 -0 0
rthumb 13.5104 -48.6811 0.00851448
